<mxfile host="drawio-plugin" modified="2021-10-04T14:31:35.372Z" agent="5.0 (Windows NT 6.2; Win64; x64) AppleWebKit/537.36 (KHTML, like Gecko) Chrome/84.0.4147.105 Safari/537.36" etag="TtgVB-cYFZfEfBn4vtFG" version="14.7.4" type="embed"><diagram id="C5RBs43oDa-KdzZeNtuy" name="Page-1"><mxGraphModel dx="961" dy="2894" grid="1" gridSize="10" guides="1" tooltips="1" connect="1" arrows="1" fold="1" page="1" pageScale="1" pageWidth="827" pageHeight="1169" math="0" shadow="0"><root><mxCell id="WIyWlLk6GJQsqaUBKTNV-0"/><mxCell id="WIyWlLk6GJQsqaUBKTNV-1" parent="WIyWlLk6GJQsqaUBKTNV-0"/><mxCell id="zkfFHV4jXpPFQw0GAbJ--6" value="User" style="swimlane;fontStyle=0;align=center;verticalAlign=top;childLayout=stackLayout;horizontal=1;startSize=26;horizontalStack=0;resizeParent=1;resizeLast=0;collapsible=1;marginBottom=0;rounded=0;shadow=0;strokeWidth=1;" parent="WIyWlLk6GJQsqaUBKTNV-1" vertex="1"><mxGeometry x="60" y="-1920" width="160" height="324" as="geometry"><mxRectangle x="130" y="380" width="160" height="26" as="alternateBounds"/></mxGeometry></mxCell><mxCell id="zkfFHV4jXpPFQw0GAbJ--9" value="" style="line;html=1;strokeWidth=1;align=left;verticalAlign=middle;spacingTop=-1;spacingLeft=3;spacingRight=3;rotatable=0;labelPosition=right;points=[];portConstraint=eastwest;" parent="zkfFHV4jXpPFQw0GAbJ--6" vertex="1"><mxGeometry y="26" width="160" height="8" as="geometry"/></mxCell><mxCell id="AvWbFAieoLCLIY4cBuf3-0" value="id" style="text;html=1;strokeColor=none;fillColor=none;align=center;verticalAlign=middle;whiteSpace=wrap;rounded=0;" parent="zkfFHV4jXpPFQw0GAbJ--6" vertex="1"><mxGeometry y="34" width="160" height="20" as="geometry"/></mxCell><mxCell id="AvWbFAieoLCLIY4cBuf3-3" value="picture" style="text;html=1;align=center;verticalAlign=middle;resizable=0;points=[];autosize=1;strokeColor=none;" parent="zkfFHV4jXpPFQw0GAbJ--6" vertex="1"><mxGeometry y="54" width="160" height="20" as="geometry"/></mxCell><mxCell id="AvWbFAieoLCLIY4cBuf3-8" value="position" style="text;html=1;align=center;verticalAlign=middle;resizable=0;points=[];autosize=1;strokeColor=none;" parent="zkfFHV4jXpPFQw0GAbJ--6" vertex="1"><mxGeometry y="74" width="160" height="20" as="geometry"/></mxCell><mxCell id="AvWbFAieoLCLIY4cBuf3-4" value="email" style="text;html=1;align=center;verticalAlign=middle;resizable=0;points=[];autosize=1;strokeColor=none;" parent="zkfFHV4jXpPFQw0GAbJ--6" vertex="1"><mxGeometry y="94" width="160" height="20" as="geometry"/></mxCell><mxCell id="AvWbFAieoLCLIY4cBuf3-7" value="role" style="text;html=1;align=center;verticalAlign=middle;resizable=0;points=[];autosize=1;strokeColor=none;" parent="zkfFHV4jXpPFQw0GAbJ--6" vertex="1"><mxGeometry y="114" width="160" height="20" as="geometry"/></mxCell><mxCell id="AvWbFAieoLCLIY4cBuf3-1" value="firstName" style="text;html=1;align=center;verticalAlign=middle;resizable=0;points=[];autosize=1;strokeColor=none;" parent="zkfFHV4jXpPFQw0GAbJ--6" vertex="1"><mxGeometry y="134" width="160" height="20" as="geometry"/></mxCell><mxCell id="HmVjUPEl9o43bzteQS96-2" value="phoneNumber" style="text;html=1;align=center;verticalAlign=middle;resizable=0;points=[];autosize=1;strokeColor=none;" parent="zkfFHV4jXpPFQw0GAbJ--6" vertex="1"><mxGeometry y="154" width="160" height="20" as="geometry"/></mxCell><mxCell id="HmVjUPEl9o43bzteQS96-1" value="lastName" style="text;html=1;align=center;verticalAlign=middle;resizable=0;points=[];autosize=1;strokeColor=none;" parent="zkfFHV4jXpPFQw0GAbJ--6" vertex="1"><mxGeometry y="174" width="160" height="20" as="geometry"/></mxCell><mxCell id="HmVjUPEl9o43bzteQS96-3" value="techStack" style="text;html=1;align=center;verticalAlign=middle;resizable=0;points=[];autosize=1;strokeColor=none;" parent="zkfFHV4jXpPFQw0GAbJ--6" vertex="1"><mxGeometry y="194" width="160" height="20" as="geometry"/></mxCell><mxCell id="HmVjUPEl9o43bzteQS96-26" value="ratePerHour" style="text;html=1;align=center;verticalAlign=middle;resizable=0;points=[];autosize=1;strokeColor=none;" parent="zkfFHV4jXpPFQw0GAbJ--6" vertex="1"><mxGeometry y="214" width="160" height="20" as="geometry"/></mxCell><mxCell id="3" value="employeeStatus" style="text;html=1;align=center;verticalAlign=middle;resizable=0;points=[];autosize=1;strokeColor=none;" parent="zkfFHV4jXpPFQw0GAbJ--6" vertex="1"><mxGeometry y="234" width="160" height="20" as="geometry"/></mxCell><mxCell id="2" value="ratePreMonth" style="text;html=1;align=center;verticalAlign=middle;resizable=0;points=[];autosize=1;strokeColor=none;" parent="zkfFHV4jXpPFQw0GAbJ--6" vertex="1"><mxGeometry y="254" width="160" height="20" as="geometry"/></mxCell><mxCell id="GqElNDNPOveqoOkW6Kyj-7" style="edgeStyle=orthogonalEdgeStyle;rounded=0;orthogonalLoop=1;jettySize=auto;html=1;entryX=1;entryY=0.5;entryDx=0;entryDy=0;fontFamily=Helvetica;" parent="WIyWlLk6GJQsqaUBKTNV-1" source="GqElNDNPOveqoOkW6Kyj-1" target="zkfFHV4jXpPFQw0GAbJ--6" edge="1"><mxGeometry relative="1" as="geometry"/></mxCell><mxCell id="GqElNDNPOveqoOkW6Kyj-1" value="TimeSheet" style="swimlane;fontStyle=0;align=center;verticalAlign=top;childLayout=stackLayout;horizontal=1;startSize=26;horizontalStack=0;resizeParent=1;resizeLast=0;collapsible=1;marginBottom=0;rounded=0;shadow=0;strokeWidth=1;" parent="WIyWlLk6GJQsqaUBKTNV-1" vertex="1"><mxGeometry x="350" y="-1850" width="160" height="230" as="geometry"><mxRectangle x="130" y="380" width="160" height="26" as="alternateBounds"/></mxGeometry></mxCell><mxCell id="GqElNDNPOveqoOkW6Kyj-2" value="" style="line;html=1;strokeWidth=1;align=left;verticalAlign=middle;spacingTop=-1;spacingLeft=3;spacingRight=3;rotatable=0;labelPosition=right;points=[];portConstraint=eastwest;" parent="GqElNDNPOveqoOkW6Kyj-1" vertex="1"><mxGeometry y="26" width="160" height="8" as="geometry"/></mxCell><mxCell id="AvWbFAieoLCLIY4cBuf3-10" value="id" style="text;html=1;strokeColor=none;fillColor=none;align=center;verticalAlign=middle;whiteSpace=wrap;rounded=0;" parent="GqElNDNPOveqoOkW6Kyj-1" vertex="1"><mxGeometry y="34" width="160" height="20" as="geometry"/></mxCell><mxCell id="AvWbFAieoLCLIY4cBuf3-11" value="date" style="text;html=1;align=center;verticalAlign=middle;resizable=0;points=[];autosize=1;strokeColor=none;" parent="GqElNDNPOveqoOkW6Kyj-1" vertex="1"><mxGeometry y="54" width="160" height="20" as="geometry"/></mxCell><mxCell id="AvWbFAieoLCLIY4cBuf3-14" value="hours" style="text;html=1;align=center;verticalAlign=middle;resizable=0;points=[];autosize=1;strokeColor=none;" parent="GqElNDNPOveqoOkW6Kyj-1" vertex="1"><mxGeometry y="74" width="160" height="20" as="geometry"/></mxCell><mxCell id="GqElNDNPOveqoOkW6Kyj-10" value="Many" style="text;html=1;strokeColor=none;fillColor=none;align=center;verticalAlign=middle;whiteSpace=wrap;rounded=0;fontFamily=Helvetica;" parent="WIyWlLk6GJQsqaUBKTNV-1" vertex="1"><mxGeometry x="310" y="-1730" width="40" height="20" as="geometry"/></mxCell><mxCell id="GqElNDNPOveqoOkW6Kyj-11" value="One" style="text;html=1;strokeColor=none;fillColor=none;align=center;verticalAlign=middle;whiteSpace=wrap;rounded=0;fontFamily=Helvetica;" parent="WIyWlLk6GJQsqaUBKTNV-1" vertex="1"><mxGeometry x="220" y="-1730" width="40" height="20" as="geometry"/></mxCell><mxCell id="AvWbFAieoLCLIY4cBuf3-5" style="edgeStyle=orthogonalEdgeStyle;rounded=0;orthogonalLoop=1;jettySize=auto;html=1;exitX=0.5;exitY=1;exitDx=0;exitDy=0;" parent="WIyWlLk6GJQsqaUBKTNV-1" source="GqElNDNPOveqoOkW6Kyj-10" target="GqElNDNPOveqoOkW6Kyj-10" edge="1"><mxGeometry relative="1" as="geometry"/></mxCell><mxCell id="AvWbFAieoLCLIY4cBuf3-13" value="tasksDescription" style="text;html=1;align=center;verticalAlign=middle;resizable=0;points=[];autosize=1;strokeColor=none;" parent="WIyWlLk6GJQsqaUBKTNV-1" vertex="1"><mxGeometry x="380" y="-1753" width="100" height="20" as="geometry"/></mxCell><mxCell id="0" value="status" style="text;html=1;align=center;verticalAlign=middle;resizable=0;points=[];autosize=1;strokeColor=none;" parent="WIyWlLk6GJQsqaUBKTNV-1" vertex="1"><mxGeometry x="395" y="-1730" width="50" height="20" as="geometry"/></mxCell></root></mxGraphModel></diagram></mxfile>